<svg width="42" height="41" viewBox="0 0 42 41" fill="none" xmlns="http://www.w3.org/2000/svg">
<path d="M42 17.7468C42 8.23688 32.5798 0.500002 20.9998 0.500002C9.42141 0.500002 0 8.23688 0 17.7468C0 26.2725 7.47094 33.4125 17.5626 34.7627C18.2466 34.9118 19.1774 35.219 19.4129 35.8106C19.6246 36.3479 19.5513 37.1897 19.4805 37.7324C19.4805 37.7324 19.2341 39.2321 19.181 39.5515C19.0896 40.0889 18.7591 41.6529 20.9998 40.6971C23.2413 39.7413 33.0939 33.4903 37.4996 28.3581C40.5431 24.9806 42 21.5529 42 17.7468Z" fill="#228BDF"/>
<path d="M7.88243 13.0001H6.40942C6.18357 13.0001 6 13.1853 6 13.4127V22.6626C6 22.8904 6.18357 23.0752 6.40942 23.0752H7.88243C8.10827 23.0752 8.29144 22.8904 8.29144 22.6626V13.4127C8.29144 13.1853 8.10827 13.0001 7.88243 13.0001Z" fill="white"/>
<path d="M12.8824 13.0001H11.4094C11.1836 13.0001 11 13.1853 11 13.4127V22.6626C11 22.8904 11.1836 23.0752 11.4094 23.0752H12.8824C13.1083 23.0752 13.2914 22.8904 13.2914 22.6626V13.4127C13.2914 13.1853 13.1083 13.0001 12.8824 13.0001Z" fill="white"/>
<path d="M13 18.5065V17.2209C13 17.0238 12.8714 16.8635 12.7133 16.8635H6.2867C6.12836 16.8635 6 17.0238 6 17.2209V18.5065C6 18.7037 6.12836 18.8635 6.2867 18.8635H12.7133C12.8714 18.8635 13 18.7037 13 18.5065Z" fill="white"/>
<path d="M36 22.8635V17.883C36 15.9843 34.707 14.8635 32.965 14.8635C31.803 14.8635 30.9412 15.2215 30.4168 15.8752V15.0813H28V22.8635H30.4168V18.3497C30.4168 17.1829 31.1476 16.7314 32.1027 16.7314C32.9462 16.7314 33.5832 17.1514 33.5832 18.0385V22.8635H36Z" fill="white"/>
<path d="M17 14.8635C16.2089 14.8635 15.4355 15.0981 14.7777 15.5376C14.1199 15.9772 13.6072 16.6019 13.3045 17.3328C13.0017 18.0637 12.9225 18.868 13.0769 19.6439C13.2312 20.4198 13.6122 21.1325 14.1716 21.692C14.731 22.2514 15.4437 22.6323 16.2196 22.7867C16.9956 22.941 17.7998 22.8618 18.5307 22.559C19.2616 22.2563 19.8864 21.7436 20.3259 21.0858C20.7654 20.428 21 19.6547 21 18.8635C21.0005 18.3381 20.8974 17.8177 20.6965 17.3322C20.4957 16.8467 20.2011 16.4055 19.8295 16.034C19.458 15.6624 19.0169 15.3678 18.5313 15.167C18.0458 14.9661 17.5254 14.863 17 14.8635V14.8635ZM17 21.2201C16.5339 21.2201 16.0783 21.0818 15.6908 20.8229C15.3033 20.564 15.0012 20.1959 14.8229 19.7653C14.6445 19.3347 14.5978 18.8609 14.6888 18.4038C14.7797 17.9467 15.0041 17.5268 15.3337 17.1972C15.6632 16.8676 16.0831 16.6432 16.5403 16.5523C16.9974 16.4613 17.4712 16.508 17.9018 16.6864C18.3324 16.8647 18.7004 17.1668 18.9594 17.5543C19.2183 17.9418 19.3565 18.3974 19.3565 18.8635C19.3565 19.173 19.2956 19.4794 19.1771 19.7653C19.0587 20.0512 18.8851 20.311 18.6663 20.5298C18.4475 20.7487 18.1877 20.9222 17.9018 21.0407C17.6159 21.1591 17.3095 21.2201 17 21.2201Z" fill="white"/>
<path d="M24 14.8635C23.2089 14.8635 22.4355 15.0981 21.7777 15.5376C21.1199 15.9772 20.6072 16.6019 20.3045 17.3328C20.0017 18.0637 19.9225 18.868 20.0769 19.6439C20.2312 20.4198 20.6122 21.1325 21.1716 21.692C21.731 22.2514 22.4437 22.6323 23.2196 22.7867C23.9956 22.941 24.7998 22.8618 25.5307 22.559C26.2616 22.2563 26.8864 21.7436 27.3259 21.0858C27.7654 20.428 28 19.6547 28 18.8635C28.0005 18.3381 27.8974 17.8177 27.6965 17.3322C27.4957 16.8467 27.2011 16.4055 26.8295 16.034C26.458 15.6624 26.0169 15.3678 25.5313 15.167C25.0458 14.9661 24.5254 14.863 24 14.8635V14.8635ZM24 21.2201C23.5339 21.2201 23.0783 21.0818 22.6908 20.8229C22.3033 20.564 22.0012 20.1959 21.8229 19.7653C21.6445 19.3347 21.5978 18.8609 21.6888 18.4038C21.7797 17.9467 22.0041 17.5268 22.3337 17.1972C22.6632 16.8676 23.0831 16.6432 23.5403 16.5523C23.9974 16.4613 24.4712 16.508 24.9018 16.6864C25.3324 16.8647 25.7004 17.1668 25.9594 17.5543C26.2183 17.9418 26.3565 18.3974 26.3565 18.8635C26.3565 19.173 26.2956 19.4794 26.1771 19.7653C26.0587 20.0512 25.8851 20.311 25.6663 20.5298C25.4475 20.7487 25.1877 20.9222 24.9018 21.0407C24.6159 21.1591 24.3095 21.2201 24 21.2201Z" fill="white"/>
</svg>
